<svg width="73" height="30" viewBox="0 0 73 30" xmlns="http://www.w3.org/2000/svg" xmlns:sketch="http://www.bohemiancoding.com/sketch/ns"><title>logo_mcafee</title><defs><linearGradient x1="81.077%" y1="58.529%" x2="23.398%" y2="3.754%" id="a"><stop stop-color="#781A26" offset="10%"/><stop stop-color="#900C1C" offset="46.7%"/><stop stop-color="#C01F40" offset="90%"/></linearGradient></defs><g sketch:type="MSLayerGroup" fill="none"><rect stroke="#979797" stroke-width=".8" fill="#fff" sketch:type="MSShapeGroup" width="73" height="30" rx="3"/><path d="M34.899 13.66h-1.857l-1.729-4.468-.64 4.468h-1.985l1.281-8.298h1.985l2.946 8.298zm-1.281-4.277l1.473-4.021h2.049l1.153 8.298h-1.985l-.576-4.468-1.153 2.681-.961-2.489zm12.231 2.809l-.512 1.468h-1.985l2.818-8.298h2.049l2.754 8.298h-1.985l-.448-1.468h-2.689zm1.281-4.277l-.832 2.617h1.601l-.768-2.617zm13.896 3.255h-3.906c0 .83.384 1.277 1.153 1.277.384 0 .704-.128.896-.511h1.793c-.128.638-.512 1.149-.961 1.468-.448.319-1.089.447-1.665.447-1.729 0-3.01-1.085-3.01-3 0-1.851 1.217-3 2.882-3 1.793 0 2.882 1.213 2.882 3.128v.191h-.064zm-1.729-1.149c-.064-.511-.576-.894-1.025-.894-.512 0-.961.319-1.089.894h2.113zm8.068 1.149h-3.906c0 .83.384 1.277 1.153 1.277.384 0 .704-.128.896-.511h1.793c-.128.638-.512 1.149-.961 1.468-.448.319-1.089.447-1.665.447-1.729 0-3.01-1.085-3.01-3 0-1.851 1.217-3 2.882-3 1.793 0 2.882 1.213 2.882 3.128v.191h-.064zm-1.729-1.149c-.064-.511-.576-.894-1.025-.894-.512 0-.961.319-1.089.894h2.113zm1.985-3.128c0-.766.64-1.404 1.409-1.404.768 0 1.409.638 1.409 1.404 0 .766-.64 1.404-1.409 1.404-.768 0-1.409-.638-1.409-1.404zm.256 0c0 .638.512 1.149 1.217 1.149.64 0 1.217-.511 1.217-1.149s-.512-1.149-1.217-1.149c-.704 0-1.217.511-1.217 1.149zm1.793.83h-.256l-.384-.702h-.32v.702h-.192v-1.596h.64c.32 0 .576.064.576.447 0 .319-.192.447-.448.447l.384.702zm-.961-1.404v.383h.256c.192 0 .512.064.512-.191 0-.191-.192-.191-.384-.191h-.384zM51.612 9.383h-1.025v-1.34h1.089v-.638c0-1.66.768-2.234 2.177-2.234.384 0 .704.064.961.128l-.128 1.34c-.128-.064-.32-.064-.576-.064-.448 0-.64.319-.64.894v.638h1.281v1.34h-1.281v4.277h-1.857v-4.34zM32.85 17.553c-.576-.191-.896-.319-1.537-.319-.64 0-1.409.191-1.409 1.021 0 1.468 3.458 1.149 3.458 3.702 0 1.66-1.345 2.298-2.946 2.298-.576 0-1.089-.128-1.665-.319l.128-1.021c.384.128 1.089.383 1.665.383.64 0 1.601-.383 1.601-1.277 0-1.723-3.458-1.277-3.458-3.702 0-1.404 1.153-2.106 2.561-2.106.512 0 1.153.064 1.729.255l-.128 1.085zm2.177-1.149h4.482v.957h-3.33v2.298h3.074v.957h-3.074v2.553h3.33v.957h-4.482v-7.723zm11.398 1.277c-.448-.255-1.025-.447-1.601-.447-1.857 0-3.074 1.277-3.074 3.064 0 1.851 1.345 3.064 3.01 3.064.576 0 1.345-.128 1.729-.383l.064 1.085c-.64.255-1.345.255-1.857.255-2.561 0-4.226-1.596-4.226-4.085 0-2.426 1.793-4.021 4.226-4.021.64 0 1.217.064 1.793.319l-.064 1.149zm7.3 3.255c0 2.17-1.153 3.383-3.138 3.383-1.985 0-3.138-1.149-3.138-3.383v-4.532h1.217v4.404c0 1.468.512 2.489 1.985 2.489s1.985-1.021 1.985-2.489v-4.404h1.153v4.532h-.064zm1.857-4.532h1.985c1.601 0 3.138.255 3.138 2.106 0 .957-.704 1.596-1.665 1.787.384.128.512.319.768.766l1.537 3.128h-1.345l-1.217-2.681c-.384-.766-.768-.766-1.345-.766h-.704v3.447h-1.153v-7.787zm1.153 3.319h.961c1.089 0 1.729-.447 1.729-1.213 0-.702-.576-1.149-1.601-1.149h-1.089v2.362zm5.891-3.319h4.482v.957h-3.33v2.298h3.074v.957h-3.074v2.553h3.33v.957h-4.482v-7.723zM42.839 9.766c-.32-.191-.64-.319-1.089-.319-.768 0-1.409.574-1.409 1.532 0 .894.704 1.468 1.473 1.468.448 0 .832-.128 1.153-.255l.064 1.468c-.448.191-1.025.255-1.473.255-1.729 0-3.074-1.085-3.074-2.936s1.345-2.936 3.074-2.936c.576 0 1.025.128 1.473.319l-.192 1.404z" id="Shape" fill="#1A171B" sketch:type="MSShapeGroup"/><path d="M14.6 27.511c-10.566-4.787-11.718-15-11.718-19.723 0-1.723.192-2.745.192-2.936.448-.128 5.955-1.532 11.526-1.532s11.078 1.404 11.526 1.532c0 .191.192 1.149.192 2.936.064 4.66-1.153 14.936-11.718 19.723z" id="Shape" fill="#fff" sketch:type="MSShapeGroup"/><path d="M26.19 4.851c-.448-.128-5.955-1.532-11.526-1.532s-11.078 1.404-11.526 1.532c0 .191-.192 1.149-.192 2.936 0 4.723 1.217 14.936 11.718 19.723 10.566-4.787 11.718-15 11.718-19.723 0-1.787-.192-2.809-.192-2.936zm-11.59 21.447c-9.477-4.468-10.63-14.043-10.63-18.574 0-.957.064-1.66.064-2.043.896-.191 5.699-1.34 10.566-1.34 4.867 0 9.669 1.085 10.566 1.34.064.383.064 1.085.064 2.043.064 4.596-1.153 14.17-10.63 18.574z" id="Shape" fill="#929CA0" sketch:type="MSShapeGroup"/><path d="M23.309 6.957c-.256 0-3.714.447-8.709.447-4.995 0-8.453-.447-8.709-.447-.064.638-.064 1.213-.064 1.787 0 11.362 7.364 15 8.773 15.574 1.409-.638 8.773-4.277 8.773-15.574 0-.638 0-1.213-.064-1.787z" id="Shape" fill="url(#a)" sketch:type="MSShapeGroup"/><path d="M13.063 8.809l2.946 9.128h-2.625l-1.089-5.106-.768 5.106h-2.241l1.473-9.128h2.305zm5.571 0h-2.305l-1.345 4.021 1.217 3.894.832-3.894.704 5.106h2.241l-1.345-9.128z" fill="#fff" sketch:type="MSShapeGroup"/></g></svg>