
<svg width="68" height="37" viewBox="0 0 68 37" xmlns="http://www.w3.org/2000/svg" xmlns:sketch="http://www.bohemiancoding.com/sketch/ns"><title>logo_norton</title><g sketch:type="MSShapeGroup" fill="none"><path d="M12.338 5.57c-5.742 0-10.414 4.651-10.414 10.368 0 5.717 4.672 10.368 10.414 10.368h43.406c5.742 0 10.414-4.651 10.414-10.368 0-5.717-4.672-10.368-10.414-10.368h-43.406z" fill="#fff"/><path d="M12.338 5.57c-5.742 0-10.414 4.651-10.414 10.368 0 5.717 4.672 10.368 10.414 10.368h43.406c5.742 0 10.414-4.651 10.414-10.368 0-5.717-4.672-10.368-10.414-10.368h-43.406zm43.406 21.62h-43.406c-6.231 0-11.301-5.048-11.301-11.252 0-6.204 5.069-11.251 11.301-11.251h43.406c6.231 0 11.301 5.047 11.301 11.251s-5.069 11.252-11.301 11.252z" fill="#BFC0BF"/><path d="M50.537 14.239c-.864 0-1.566-.697-1.566-1.558 0-.862.701-1.559 1.566-1.559.864 0 1.566.698 1.566 1.559s-.702 1.558-1.566 1.558m0-4.597c-1.685 0-3.051 1.361-3.051 3.039 0 1.678 1.366 3.037 3.051 3.037 1.686 0 3.052-1.36 3.052-3.037 0-1.678-1.366-3.039-3.052-3.039" fill="#1A1918"/><path d="M36.542 14.239c-.864 0-1.565-.697-1.565-1.558 0-.862.701-1.559 1.565-1.559.865 0 1.566.698 1.566 1.559s-.701 1.558-1.566 1.558m0-4.597c-1.685 0-3.051 1.361-3.051 3.039 0 1.678 1.366 3.037 3.051 3.037 1.686 0 3.053-1.36 3.053-3.037 0-1.678-1.367-3.039-3.053-3.039" fill="#1A1918"/><path d="M47.289 14.324c-.193.056-.488.111-.6.111-.522 0-.635-.179-.635-.676v-2.807h1.248v-1.173h-1.248v-1.658h-1.404l-.295 1.658h-.978v.001h-.08c-.8.004-1.403.49-1.79 1.25l-.488-1.251h-1.007v5.83h1.721v-2.537c0-1.278.759-2.095 1.658-2.12h.941v2.898c0 1.364.702 1.872 1.846 1.872.59 0 1.043-.124 1.314-.214l-.203-1.184z" fill="#1A1918"/><path d="M55.674 11.623v3.985h-1.673v-5.83h1.015l.34.89" fill="#1A1918"/><path d="M55.349 10.675c.509-.587 1.204-1.032 2.019-1.032 1.394 0 1.967 1.106 1.967 2.132v3.834h-1.722v-3.785c0-.5-.418-.771-.871-.771-.482 0-.793.275-1.065.569" fill="#1A1918"/><path d="M26.779 7.669h1.917l2.633 4.993v-4.993h1.588v7.941h-1.737l-2.812-5.49v5.49h-1.589v-7.941z" fill="#1A1918"/><path d="M64.416 4.687v.284h-.418v1.399h-.326v-1.399h-.41v-.284h1.154z" fill="#9E9F9E"/><path d="M64.65 6.37v-1.683h.441l.293 1.102.298-1.102h.446v1.683h-.269v-1.317h-.008l-.342 1.317h-.239l-.345-1.317h-.007v1.317h-.269z" fill="#9E9F9E"/><path d="M26.301 22.647l.398-.616c.323.238.808.459 1.4.459.575 0 .93-.259.93-.71 0-.518-.449-.655-1.186-.911-.661-.231-1.311-.563-1.311-1.496 0-.874.692-1.35 1.623-1.35.619 0 1.075.121 1.442.337l-.318.656c-.308-.159-.676-.268-1.109-.268-.519 0-.83.195-.83.604 0 .481.361.603 1.039.825.707.228 1.485.554 1.485 1.587 0 .874-.627 1.45-1.753 1.45-.835 0-1.449-.287-1.81-.568" fill="#9E9F9E"/><path d="M31.374 18.103h3.014v.698h-2.157v1.377h1.703v.683h-1.703v1.592h2.288v.696h-3.145v-5.046z" fill="#9E9F9E"/><path d="M35.747 20.63c0-1.472.708-2.605 2.121-2.605.633 0 1.133.199 1.485.608l-.5.576c-.302-.295-.559-.439-.971-.439-.83 0-1.213.676-1.213 1.925 0 1.172.404 1.766 1.22 1.766.453 0 .772-.237 1.051-.532l.505.56c-.367.432-.827.726-1.563.726-1.457 0-2.135-1.106-2.135-2.585" fill="#9E9F9E"/><path d="M40.843 21.218v-3.115h.864v3.254c0 .694.172 1.148.908 1.148.729 0 .909-.454.909-1.148v-3.254h.873v3.115c0 1.25-.483 1.997-1.789 1.997-1.284 0-1.766-.747-1.766-1.997" fill="#9E9F9E"/><path d="M47.739 20.35c.643 0 .973-.208.973-.791 0-.56-.337-.76-.923-.76h-.815v1.551h.764zm1.947 2.799h-.938l-.973-2.14h-.801v2.14h-.858v-5.047h1.653c1.024 0 1.823.366 1.823 1.471 0 .755-.454 1.133-.96 1.313l1.054 2.262z" fill="#9E9F9E"/><path d="M51.154 18.103h3.014v.698h-2.157v1.377h1.701v.683h-1.701v1.592h2.286v.696h-3.143v-5.046z" fill="#9E9F9E"/><path d="M56.962 22.452c1.183 0 1.588-.544 1.588-1.844 0-1.141-.318-1.808-1.481-1.808h-.461v3.653h.354zm-1.216-4.349h1.265c1.652 0 2.446.89 2.446 2.505 0 1.645-.808 2.542-2.402 2.542h-1.309v-5.047z" fill="#9E9F9E"/><path d="M12.286 7.639c-2.225 0-4.319.864-5.895 2.431-1.574 1.568-2.442 3.653-2.442 5.868 0 2.215.867 4.299 2.442 5.869 1.575 1.566 3.669 2.43 5.895 2.431 2.225-.001 4.319-.864 5.895-2.432 1.572-1.568 2.44-3.653 2.441-5.868-.001-2.216-.868-4.3-2.442-5.869-1.576-1.567-3.67-2.43-5.894-2.43m0 20.439c-6.723 0-12.194-5.447-12.194-12.14 0-6.693 5.471-12.139 12.194-12.139 6.722 0 12.192 5.446 12.193 12.139-.001 6.693-5.471 12.14-12.193 12.14" fill="#F6BC25"/><path d="M26.519 1.929h-.951v.947h.951v-.947z" fill="#F6BC25"/><path d="M26.519.043h-.951v.948h.951v-.948z" fill="#F6BC25"/><path d="M23.781 2.869h-.888v.924h.888v-.924z" fill="#F6BC25"/><path d="M22.029 4.684h-.895v.884h.895v-.884z" fill="#1A1918"/><path d="M24.777 3.793h-.996v.89h.996v-.89z" fill="#1A1918"/><path d="M20.242 4.684h.892v-.847h-.892v.847z" fill="#1A1918"/><path d="M23.781 4.684h-.888v.884h.888v-.884z" fill="#1A1918"/><path d="M25.568.991h-.941v.938h.941v-.938z" fill="#1A1918"/><path d="M24.628 1.929h-1.734v.94h1.734v-.94z" fill="#1A1918"/><path d="M22.029 4.684h.864v-1.815h-.864v1.815z" fill="#1A1918"/><path d="M22.029 5.568v.891h-.895v-.891h-1.485v.642h-.796v.792h.889v.882h-.889v-.882h-.945v1.384h-.894v.883h-.593v.887h-.652c-.732 1.084-2.568 4.465-3.122 5.841-2.001-2.771-3.554-3.87-4.777-4.267-.659-.198-1.454.518-.359 1.643 2.517 2.755 3.309 5.037 4.074 6.857.405.96 2.219 1.109 2.583.132.775-2.065 1.898-4.386 3.228-6.292v-.987h.71v-.891h.746v-1.032h.892v-.995h-.902v-.904h.902v.904h.882l-.002-.895h.707v-1.081h.796v-.743h.766v-1.876h-.864z" fill="#1A1918"/><path d="M7.162 33.695v-.011c0-.56-.381-.928-.833-.928-.452 0-.85.374-.85.928v.011c0 .56.397.929.85.929.458 0 .833-.357.833-.929zm-2.334-1.455h.668v.484c.215-.302.518-.544.988-.544.69 0 1.357.544 1.357 1.505v.011c0 .962-.662 1.505-1.357 1.505-.48 0-.783-.241-.988-.511v1.33h-.668v-3.78z" fill="#676767"/><path d="M10.823 33.706v-.011c0-.511-.37-.933-.894-.933-.536 0-.877.417-.877.923v.011c0 .505.37.934.888.934.541 0 .883-.423.883-.923m-2.439 0v-.011c0-.829.662-1.516 1.556-1.516s1.55.676 1.55 1.505v.011c0 .824-.662 1.511-1.561 1.511-.888 0-1.545-.675-1.545-1.5" fill="#676767"/><path d="M11.812 32.24h.684l.584 1.989.646-2h.568l.651 2 .596-1.989h.667l-.954 2.923h-.596l-.651-1.983-.657 1.983h-.595l-.944-2.923z" fill="#676767"/><path d="M18.71 33.487c-.044-.428-.298-.763-.739-.763-.408 0-.695.313-.756.763h1.495zm-2.157.214v-.011c0-.829.591-1.511 1.424-1.511.927 0 1.396.725 1.396 1.56l-.011.187h-2.141c.072.472.408.736.838.736.326 0 .557-.12.789-.346l.392.346c-.276.33-.656.544-1.191.544-.844 0-1.495-.61-1.495-1.505z" fill="#676767"/><path d="M20.067 32.24h.668v.654c.182-.433.518-.73 1.031-.709v.703h-.038c-.585 0-.993.379-.993 1.148v1.104h-.668v-2.901z" fill="#676767"/><path d="M24.311 33.487c-.044-.428-.298-.763-.739-.763-.408 0-.695.313-.755.763h1.495zm-2.157.214v-.011c0-.829.591-1.511 1.424-1.511.927 0 1.396.725 1.396 1.56l-.011.187h-2.141c.072.472.408.736.838.736.326 0 .558-.12.789-.346l.392.346c-.276.33-.657.544-1.192.544-.844 0-1.496-.61-1.496-1.505z" fill="#676767"/><path d="M27.871 33.695v-.011c0-.56-.397-.928-.844-.928-.458 0-.838.352-.838.928v.011c0 .56.386.929.838.929.447 0 .844-.374.844-.929m-2.356 0v-.011c0-.961.656-1.505 1.351-1.505.48 0 .783.242.993.511v-1.56h.668v4.01h-.668v-.483c-.215.302-.519.543-.993.543-.684 0-1.351-.543-1.351-1.505" fill="#676767"/><path d="M33.347 33.695v-.011c0-.56-.381-.928-.833-.928-.453 0-.85.374-.85.928v.011c0 .56.397.929.85.929.458 0 .833-.357.833-.929m-1.666.994v.451h-.668v-4.01h.668v1.594c.215-.302.519-.544.988-.544.69 0 1.357.544 1.357 1.505v.011c0 .962-.662 1.505-1.357 1.505-.48 0-.783-.241-.988-.511" fill="#676767"/><path d="M34.48 35.86l.226-.494c.122.066.254.11.392.11.188 0 .304-.083.414-.335l-1.213-2.901h.711l.828 2.153.756-2.153h.695l-1.159 2.983c-.231.593-.491.813-.96.813-.281 0-.485-.066-.689-.176" fill="#676767"/><path d="M39.261 31.295h.75l1.165 2.955 1.158-2.955h.734l-1.605 3.873h-.596l-1.606-3.873z" fill="#8D0B3D"/><path d="M45.362 33.487c-.044-.428-.298-.763-.739-.763-.408 0-.695.313-.756.763h1.495zm-2.157.214v-.011c0-.829.59-1.511 1.424-1.511.927 0 1.396.725 1.396 1.56l-.011.187h-2.141c.072.472.408.736.838.736.326 0 .557-.12.789-.346l.392.346c-.276.33-.657.544-1.192.544-.844 0-1.495-.61-1.495-1.505z" fill="#8D0B3D"/><path d="M46.719 32.24h.668v.654c.182-.433.519-.73 1.032-.709v.703h-.039c-.585 0-.993.379-.993 1.148v1.104h-.668v-2.901z" fill="#8D0B3D"/><path d="M48.992 32.24h.668v2.901h-.668v-2.901zm-.027-1.076h.717v.631h-.717v-.631z" fill="#8D0B3D"/><path d="M50.352 34.58l.408-.484c.37.319.739.5 1.219.5.42 0 .684-.192.684-.483v-.011c0-.274-.155-.423-.872-.587-.822-.198-1.286-.439-1.286-1.148v-.011c0-.659.551-1.115 1.319-1.115.563 0 1.01.17 1.401.483l-.364.51c-.348-.258-.696-.395-1.049-.395-.397 0-.628.204-.628.456v.011c0 .296.176.428.916.604.816.198 1.241.489 1.241 1.126v.01c0 .72-.569 1.148-1.38 1.148-.59 0-1.147-.203-1.611-.615" fill="#8D0B3D"/><path d="M54.107 32.24h.667v2.901h-.667v-2.901zm-.028-1.076h.717v.631h-.717v-.631z" fill="#8D0B3D"/><path d="M57.826 33.553v-.011c0-.477-.391-.802-.855-.802-.463 0-.828.319-.828.797v.011c0 .478.37.802.828.802.464 0 .855-.329.855-.797m-2.212 2.132l.248-.5c.309.192.64.307 1.037.307.596 0 .921-.307.921-.89v-.225c-.242.313-.546.533-1.026.533-.684 0-1.324-.505-1.324-1.357v-.011c0-.857.645-1.362 1.324-1.362.491 0 .794.225 1.021.494v-.434h.667v2.307c0 .489-.126.851-.369 1.093-.265.264-.673.39-1.197.39-.48 0-.927-.121-1.302-.346" fill="#8D0B3D"/><path d="M59.341 32.24h.667v.45c.188-.274.458-.511.91-.511.657 0 1.037.44 1.037 1.115v1.846h-.668v-1.648c0-.45-.226-.709-.623-.709-.387 0-.657.269-.657.72v1.637h-.667v-2.901z" fill="#8D0B3D"/></g></svg>