<?xml version="1.0" encoding="UTF-8"?>
<svg width="82px" height="21px" viewBox="0 0 82 21" version="1.1" xmlns="http://www.w3.org/2000/svg" xmlns:xlink="http://www.w3.org/1999/xlink">
    <!-- Generator: Sketch 50.2 (55047) - http://www.bohemiancoding.com/sketch -->
    <title>Logo/FBX horizontal - white</title>
    <desc>Created with Sketch.</desc>
    <defs></defs>
    <g id="Page-1" stroke="none" stroke-width="1" fill="none" fill-rule="evenodd">
        <g id="Desktop-HD" transform="translate(-456.000000, -578.000000)">
            <g id="Logo/FBX-horizontal---white" transform="translate(456.000000, 578.000000)">
                <g id="FBX-horizontal-logo---white">
                    <g>
                        <path d="M0.271953688,5.99726 L0.271953688,14.9249103 C0.271953688,15.47272 0.558335349,15.9794508 1.02329721,16.2534908 L8.59498877,20.7175862 C8.82719748,20.8543359 9.08662877,20.9232513 9.34633229,20.9232513 C9.60549136,20.9232513 9.86519488,20.8546062 10.0974036,20.7175862 L17.6693674,16.2534908 C17.8953149,16.1202544 18.0768896,15.9305344 18.2061969,15.7094646 L16.583186,13.3217492 L14.110558,13.2779677 L14.110558,13.2987774 L9.34633229,16.1370103 L4.58265103,13.2987774 L4.58265103,7.62339282 L4.58373993,7.62258205 L3.03994678,5.37161641 L0.498445648,5.19730103 C0.355527043,5.43485641 0.271953688,5.70916667 0.271953688,5.99726 Z" id="Clip-2" fill="#00BD9C"></path>
                        <path d="M8.59798326,0.205394872 L1.02629169,4.66922 C0.80606093,4.79894308 0.629658538,4.98352821 0.501440133,5.19730103 L4.58646219,7.62258205 L9.34905455,4.78624103 L14.113008,7.62366308 L14.113008,13.2779677 L18.2089191,15.7094646 C18.3455765,15.4756928 18.4237054,15.2062472 18.4237054,14.92464 L18.4237054,5.99726 C18.4237054,5.44972051 18.1370515,4.94326 17.6720896,4.66894974 L10.1003981,0.205394872 C9.86791714,0.0686451282 9.60875807,0.00027025641 9.34905455,0.00027025641 C9.08989548,0.00027025641 8.83046419,0.0686451282 8.59798326,0.205394872 Z" id="Clip-5" fill="#47BDA6"></path>
                        <polygon id="Fill-7" fill="#FFFFFF" points="23.5799364 6.24267985 23.5799364 14.7706209 25.4076612 14.7706209 25.4076612 11.446467 28.8643858 11.446467 28.8643858 9.71142087 25.4076612 9.71142087 25.4076612 7.97718549 29.145323 7.97718549 29.145323 6.24267985"></polygon>
                        <path d="M35.4990758,6.24265282 L35.4990758,11.4102256 C35.4990758,11.6753472 35.4579697,11.9204697 35.3757575,12.1447826 C35.2940897,12.3696359 35.1789381,12.5644908 35.0300306,12.7288067 C34.8822119,12.8936631 34.7060817,13.0220349 34.5024567,13.1147328 C34.3001929,13.2068903 34.0772399,13.2528338 33.8355033,13.2528338 C33.5932222,13.2528338 33.3680914,13.2068903 33.1611997,13.1147328 C32.954308,13.0220349 32.7768167,12.8936631 32.6284536,12.7288067 C32.479546,12.5644908 32.3649389,12.3696359 32.2832711,12.1447826 C32.2007866,11.9204697 32.160225,11.6753472 32.160225,11.4102256 L32.160225,6.24265282 L30.3325002,6.24265282 L30.3325002,11.4823841 C30.3325002,11.9883041 30.405729,12.4542262 30.5543643,12.8793395 C30.7032719,13.3049933 30.9235027,13.6744338 31.2161455,13.9879313 C31.509605,14.3011585 31.8749322,14.546281 32.3115826,14.7224882 C32.7490496,14.8992359 33.2578399,14.9873395 33.8355033,14.9873395 C34.4052721,14.9873395 34.90889,14.8992359 35.3466293,14.7224882 C35.7843686,14.546281 36.149968,14.3011585 36.4423386,13.9879313 C36.7349815,13.6747041 36.9552122,13.3049933 37.1038476,12.8793395 C37.2530274,12.4542262 37.3270728,11.9885744 37.3270728,11.4823841 L37.3270728,6.24265282 L35.4990758,6.24265282 Z" id="Clip-9" fill="#FFFFFF"></path>
                        <polygon id="Fill-11" fill="#FFFFFF" points="45.0478625 6.24267985 45.0478625 12.1691327 45.0244511 12.1691327 41.4980366 6.24267985 39.0145196 6.24267985 39.0142474 6.24267985 39.0142474 14.7708911 40.8416999 14.7708911 40.8416999 8.70039164 40.8645669 8.70039164 44.4854438 14.7708911 46.8758595 14.7708911 46.8758595 6.24267985"></polygon>
                        <path d="M48.6603821,6.24265282 L48.6603821,14.7708641 L51.647517,14.7708641 C52.2643809,14.7708641 52.8548389,14.6787067 53.4175299,14.4938513 C53.9788597,14.3092662 54.475672,14.0379287 54.9049723,13.68092 C55.3350892,13.3233708 55.6761883,12.8820421 55.9296306,12.3555826 C56.1844341,11.8296636 56.3110191,11.2215867 56.3110191,10.530541 C56.3110191,9.75193231 56.1806229,9.0898041 55.9190138,8.54307538 C55.6568603,7.99742769 55.3032388,7.55366667 54.8581494,7.21233282 C54.4125156,6.87126923 53.891203,6.62425487 53.2939393,6.47128974 C52.6964035,6.31940564 52.0651116,6.24265282 51.401697,6.24265282 L48.6603821,6.24265282 Z M50.4881068,7.97688821 L51.565577,7.97688821 C51.94751,7.97688821 52.3131094,8.02742615 52.6610141,8.12742103 C53.009191,8.22768615 53.3110896,8.37875949 53.5688875,8.57928974 C53.8269577,8.78009026 54.0319438,9.03521231 54.1846625,9.34438564 C54.3365646,9.65328872 54.4125156,10.0170538 54.4125156,10.4348703 C54.4125156,10.9167374 54.3365646,11.3234733 54.1846625,11.6566995 C54.0319438,11.9901959 53.8234187,12.2596415 53.5571818,12.4642256 C53.2925782,12.6682692 52.9773406,12.815559 52.6141912,12.9042031 C52.2507696,12.9920364 51.8579476,13.0363585 51.4370864,13.0363585 L50.4881068,13.0363585 L50.4881068,7.97688821 Z" id="Clip-13" fill="#FFFFFF"></path>
                        <path d="M57.5028242,6.24265282 L57.502552,6.24265282 L57.502552,14.7705938 L60.8999314,14.7705938 C61.2668919,14.7705938 61.635758,14.7305959 62.0070742,14.6497892 C62.3775736,14.5703338 62.7124115,14.4370974 63.00941,14.2525123 C63.305864,14.0681974 63.5478728,13.8252369 63.7357087,13.5241713 C63.9235446,13.2228354 64.0169181,12.8477195 64.0169181,12.3980128 C64.0169181,12.1253241 63.9741786,11.86804 63.8881552,11.6269713 C63.8013151,11.3861728 63.678269,11.1751026 63.5190169,10.994301 C63.358948,10.8143103 63.1678454,10.6656692 62.9448924,10.5489185 C62.7216672,10.4327082 62.4742138,10.3543338 62.200899,10.3137954 L62.200899,10.2900128 C62.6304715,10.1532631 62.975654,9.92678821 63.2375353,9.60923692 C63.4994166,9.29222615 63.6298128,8.89278718 63.6298128,8.41092 C63.6298128,7.94526821 63.5402505,7.57150359 63.3608536,7.29070718 C63.1809123,7.00964051 62.9459813,6.79046256 62.6571496,6.63425436 C62.3683179,6.4777759 62.0424635,6.37345692 61.6790419,6.32102718 C61.3161648,6.26913795 60.9543765,6.24265282 60.595855,6.24265282 L57.5028242,6.24265282 Z M59.3308212,9.65112667 L59.3308212,7.83257128 L60.5718991,7.83257128 C60.7137288,7.83257128 60.8571919,7.84716513 61.005555,7.87473128 C61.1536459,7.90337846 61.2870366,7.94932205 61.4046382,8.01337282 C61.5222398,8.0779641 61.6169744,8.1685 61.6912921,8.28471026 C61.7647931,8.40092051 61.8018158,8.54766974 61.8018158,8.72414718 C61.8018158,8.89305744 61.7686043,9.03737436 61.7029978,9.15817897 C61.635758,9.27817282 61.5481013,9.37465436 61.4394831,9.44654256 C61.3303205,9.51924154 61.2070022,9.57167128 61.0695281,9.60356154 C60.9336874,9.63572205 60.7951244,9.65112667 60.6538391,9.65112667 L59.3308212,9.65112667 L59.330549,9.65112667 L59.3308212,9.65112667 Z M59.330549,11.2410451 L60.7134566,11.2410451 C60.8610031,11.2410451 61.0207997,11.2534769 61.192302,11.2775297 C61.3648932,11.3013123 61.5249621,11.3456344 61.6727807,11.4099554 C61.8216883,11.4748169 61.9444622,11.5685959 62.0421913,11.6931841 C62.1401926,11.8175021 62.1889211,11.9807369 62.1889211,12.1809969 C62.1889211,12.3655821 62.1518983,12.5220605 62.0775807,12.6509728 C62.0029908,12.7796149 61.9077117,12.8839338 61.7903823,12.9642 C61.673053,13.0450067 61.5426567,13.1006795 61.3978326,13.13284 C61.2535528,13.16446 61.1106342,13.1809456 60.9701656,13.1809456 L59.330549,13.1809456 L59.330549,11.2410451 Z" id="Clip-16" fill="#FFFFFF"></path>
                        <path d="M67.4208309,6.39075333 C66.8731124,6.59939128 66.4008004,6.89829487 66.0028061,7.28827487 C65.6039951,7.67798462 65.2928409,8.14931179 65.071249,8.70333744 C64.8488405,9.25763333 64.7372278,9.87625026 64.7372278,10.5586477 C64.7372278,11.2410451 64.8488405,11.8591215 65.071249,12.4136877 C65.2928409,12.9674431 65.6042674,13.439581 66.0028061,13.8287503 C66.4008004,14.21846 66.8731124,14.5179041 67.4208309,14.7260015 C67.9666439,14.9349097 68.5647242,15.039499 69.2131663,15.039499 C69.8613362,15.039499 70.4585999,14.9349097 71.005774,14.7260015 C71.5515869,14.5179041 72.0249878,14.2181897 72.4232543,13.8287503 C72.821793,13.439581 73.1318583,12.9674431 73.3550836,12.4136877 C73.5769477,11.8591215 73.6891048,11.2410451 73.6891048,10.5586477 C73.6891048,9.87625026 73.5769477,9.25763333 73.3550836,8.70333744 C73.1318583,8.14931179 72.821793,7.67798462 72.4232543,7.28827487 C72.0249878,6.89829487 71.5515869,6.59939128 71.005774,6.39075333 C70.4585999,6.18211538 69.8613362,6.07752615 69.2131663,6.07752615 C68.5647242,6.07752615 67.9666439,6.18184513 67.4208309,6.39075333 Z M68.1528464,13.100139 C67.8365199,12.9633892 67.564294,12.7728585 67.3386187,12.5274656 C67.1115823,12.2836944 66.9381744,11.9939795 66.8170338,11.6607533 C66.6958933,11.3275272 66.6351869,10.960519 66.6351869,10.5586477 C66.6351869,10.1654246 66.6958933,9.79976769 66.8170338,9.46248769 C66.9381744,9.12547795 67.1115823,8.83387128 67.3386187,8.58901897 C67.564294,8.34416667 67.8362476,8.15336564 68.1528464,8.01742667 C68.4697173,7.88040667 68.8225221,7.81230205 69.2131663,7.81230205 C69.6029938,7.81230205 69.9571597,7.88040667 70.2734862,8.01742667 C70.590085,8.15336564 70.8606775,8.34416667 71.087714,8.58901897 C71.3136615,8.83387128 71.4884305,9.12547795 71.6092988,9.46248769 C71.7309838,9.79976769 71.790329,10.1654246 71.790329,10.5586477 C71.790329,10.960519 71.7309838,11.3275272 71.6092988,11.6607533 C71.4884305,11.9939795 71.3136615,12.2834241 71.087714,12.5274656 C70.8606775,12.7728585 70.590085,12.9633892 70.2734862,13.100139 C69.9571597,13.2363482 69.6029938,13.3044528 69.2131663,13.3044528 C68.8225221,13.3044528 68.4697173,13.2363482 68.1528464,13.100139 Z" id="Clip-19" fill="#FFFFFF"></path>
                        <polygon id="Fill-21" fill="#FFFFFF" points="79.3475926 6.2429501 77.6489029 9.23009421 75.8791623 6.2429501 73.5834811 6.2429501 76.3242516 10.3138224 73.4193289 14.7708911 75.5862472 14.7708911 77.5552572 11.3378239 79.5817069 14.7708911 81.8784769 14.7708911 78.8785474 10.2778783 81.561606 6.2429501"></polygon>
                    </g>
                </g>
            </g>
        </g>
    </g>
</svg>